<svg width="592" height="538" viewBox="0 0 592 538" fill="none" xmlns="http://www.w3.org/2000/svg">
<path d="M467.59 0.535065C500.45 0.535065 531.964 13.5886 555.2 36.8242C578.435 60.0597 591.489 91.5738 591.489 124.434V413.531C591.489 446.391 578.435 477.905 555.2 501.14C531.964 524.376 500.45 537.429 467.59 537.429H178.493C145.633 537.429 114.119 524.376 90.8833 501.14C67.6478 477.905 54.5942 446.391 54.5942 413.531L54.5942 124.434C54.5942 91.5738 67.6478 60.0597 90.8833 36.8242C114.119 13.5886 145.633 0.535065 178.493 0.535065L467.59 0.535065Z" fill="#EAEAFF"/>
<path d="M435.131 212.608H428.996C428.854 212.615 428.713 212.592 428.58 212.542C428.447 212.492 428.326 212.416 428.224 212.318C428.122 212.22 428.04 212.103 427.984 211.973C427.929 211.842 427.9 211.702 427.9 211.56C427.9 211.419 427.929 211.278 427.984 211.148C428.04 211.018 428.122 210.9 428.224 210.802C428.326 210.704 428.447 210.628 428.58 210.578C428.713 210.529 428.854 210.506 428.996 210.512H435.234C435.38 210.51 435.525 210.541 435.658 210.603C435.79 210.666 435.906 210.757 435.998 210.872C436.072 210.968 436.122 211.081 436.145 211.201C436.167 211.321 436.16 211.444 436.126 211.561C436.138 211.692 436.123 211.823 436.081 211.948C436.039 212.072 435.971 212.186 435.882 212.282C435.786 212.385 435.67 212.468 435.541 212.524C435.411 212.58 435.272 212.609 435.131 212.608ZM422.757 212.608H416.519C416.377 212.615 416.236 212.592 416.103 212.542C415.971 212.492 415.85 212.416 415.747 212.318C415.645 212.22 415.563 212.103 415.508 211.973C415.452 211.842 415.423 211.702 415.423 211.56C415.423 211.419 415.452 211.278 415.508 211.148C415.563 211.018 415.645 210.9 415.747 210.802C415.85 210.704 415.971 210.628 416.103 210.578C416.236 210.529 416.377 210.506 416.519 210.512H422.763C422.905 210.506 423.046 210.529 423.179 210.578C423.312 210.628 423.433 210.704 423.535 210.802C423.637 210.9 423.719 211.018 423.775 211.148C423.83 211.278 423.859 211.419 423.859 211.56C423.859 211.702 423.83 211.842 423.775 211.973C423.719 212.103 423.637 212.22 423.535 212.318C423.433 212.416 423.312 212.492 423.179 212.542C423.046 212.592 422.905 212.615 422.763 212.608H422.757ZM410.225 212.608H403.987C403.717 212.596 403.462 212.481 403.275 212.285C403.088 212.09 402.984 211.83 402.984 211.56C402.984 211.29 403.088 211.03 403.275 210.835C403.462 210.64 403.717 210.524 403.987 210.512H410.225C410.495 210.524 410.75 210.64 410.936 210.835C411.123 211.03 411.227 211.29 411.227 211.56C411.227 211.83 411.123 212.09 410.936 212.285C410.75 212.481 410.495 212.596 410.225 212.608ZM397.695 212.608H391.454C391.184 212.596 390.93 212.481 390.743 212.285C390.556 212.09 390.452 211.83 390.452 211.56C390.452 211.29 390.556 211.03 390.743 210.835C390.93 210.64 391.184 210.524 391.454 210.512H397.695C397.965 210.524 398.219 210.64 398.406 210.835C398.593 211.03 398.697 211.29 398.697 211.56C398.697 211.83 398.593 212.09 398.406 212.285C398.219 212.481 397.965 212.596 397.695 212.608ZM385.162 212.608H378.926C378.785 212.615 378.643 212.592 378.511 212.542C378.378 212.492 378.257 212.416 378.154 212.318C378.052 212.22 377.971 212.103 377.915 211.973C377.859 211.842 377.83 211.702 377.83 211.56C377.83 211.419 377.859 211.278 377.915 211.148C377.971 211.018 378.052 210.9 378.154 210.802C378.257 210.704 378.378 210.628 378.511 210.578C378.643 210.529 378.785 210.506 378.926 210.512H385.164C385.306 210.506 385.447 210.529 385.58 210.578C385.712 210.628 385.834 210.704 385.936 210.802C386.038 210.9 386.12 211.018 386.176 211.148C386.231 211.278 386.26 211.419 386.26 211.56C386.26 211.702 386.231 211.842 386.176 211.973C386.12 212.103 386.038 212.22 385.936 212.318C385.834 212.416 385.712 212.492 385.58 212.542C385.447 212.592 385.306 212.615 385.164 212.608H385.162ZM372.684 212.608H366.445C366.175 212.596 365.921 212.481 365.734 212.285C365.547 212.09 365.443 211.83 365.443 211.56C365.443 211.29 365.547 211.03 365.734 210.835C365.921 210.64 366.175 210.524 366.445 210.512H372.686C372.956 210.524 373.21 210.64 373.397 210.835C373.584 211.03 373.688 211.29 373.688 211.56C373.688 211.83 373.584 212.09 373.397 212.285C373.21 212.481 372.956 212.596 372.686 212.608H372.684ZM360.151 212.608H353.915C353.645 212.596 353.39 212.481 353.204 212.285C353.017 212.09 352.913 211.83 352.913 211.56C352.913 211.29 353.017 211.03 353.204 210.835C353.39 210.64 353.645 210.524 353.915 210.512H360.153C360.423 210.524 360.678 210.64 360.865 210.835C361.052 211.03 361.156 211.29 361.156 211.56C361.156 211.83 361.052 212.09 360.865 212.285C360.678 212.481 360.423 212.596 360.153 212.608H360.151ZM347.619 212.608H341.385C341.243 212.615 341.102 212.592 340.969 212.542C340.837 212.492 340.715 212.416 340.613 212.318C340.511 212.22 340.429 212.103 340.374 211.973C340.318 211.842 340.289 211.702 340.289 211.56C340.289 211.419 340.318 211.278 340.374 211.148C340.429 211.018 340.511 210.9 340.613 210.802C340.715 210.704 340.837 210.628 340.969 210.578C341.102 210.529 341.243 210.506 341.385 210.512H347.623C347.765 210.506 347.906 210.529 348.039 210.578C348.171 210.628 348.292 210.704 348.395 210.802C348.497 210.9 348.579 211.018 348.634 211.148C348.69 211.278 348.719 211.419 348.719 211.56C348.719 211.702 348.69 211.842 348.634 211.973C348.579 212.103 348.497 212.22 348.395 212.318C348.292 212.416 348.171 212.492 348.039 212.542C347.906 212.592 347.765 212.615 347.623 212.608H347.619ZM335.089 212.608H328.854C328.713 212.615 328.572 212.592 328.439 212.542C328.306 212.492 328.185 212.416 328.083 212.318C327.98 212.22 327.899 212.103 327.843 211.973C327.788 211.842 327.759 211.702 327.759 211.56C327.759 211.419 327.788 211.278 327.843 211.148C327.899 211.018 327.98 210.9 328.083 210.802C328.185 210.704 328.306 210.628 328.439 210.578C328.572 210.529 328.713 210.506 328.854 210.512H335.093C335.363 210.524 335.618 210.64 335.804 210.835C335.991 211.03 336.095 211.29 336.095 211.56C336.095 211.83 335.991 212.09 335.804 212.285C335.618 212.481 335.363 212.596 335.093 212.608H335.089ZM322.608 212.608H316.374C316.232 212.615 316.091 212.592 315.958 212.542C315.826 212.492 315.704 212.416 315.602 212.318C315.5 212.22 315.418 212.103 315.363 211.973C315.307 211.842 315.278 211.702 315.278 211.56C315.278 211.419 315.307 211.278 315.363 211.148C315.418 211.018 315.5 210.9 315.602 210.802C315.704 210.704 315.826 210.628 315.958 210.578C316.091 210.529 316.232 210.506 316.374 210.512H322.612C322.754 210.506 322.895 210.529 323.028 210.578C323.16 210.628 323.281 210.704 323.384 210.802C323.486 210.9 323.568 211.018 323.623 211.148C323.679 211.278 323.708 211.419 323.708 211.56C323.708 211.702 323.679 211.842 323.623 211.973C323.568 212.103 323.486 212.22 323.384 212.318C323.281 212.416 323.16 212.492 323.028 212.542C322.895 212.592 322.754 212.615 322.612 212.608H322.608ZM310.078 212.608H303.841C303.571 212.596 303.317 212.481 303.13 212.285C302.943 212.09 302.839 211.83 302.839 211.56C302.839 211.29 302.943 211.03 303.13 210.835C303.317 210.64 303.571 210.524 303.841 210.512H310.082C310.352 210.524 310.606 210.64 310.793 210.835C310.98 211.03 311.084 211.29 311.084 211.56C311.084 211.83 310.98 212.09 310.793 212.285C310.606 212.481 310.352 212.596 310.082 212.608H310.078ZM297.545 212.608H291.313C291.043 212.596 290.788 212.481 290.602 212.285C290.415 212.09 290.311 211.83 290.311 211.56C290.311 211.29 290.415 211.03 290.602 210.835C290.788 210.64 291.043 210.524 291.313 210.512H297.551C297.821 210.524 298.076 210.64 298.263 210.835C298.45 211.03 298.554 211.29 298.554 211.56C298.554 211.83 298.45 212.09 298.263 212.285C298.076 212.481 297.821 212.596 297.551 212.608H297.545ZM285.013 212.608H278.781C278.639 212.615 278.498 212.592 278.365 212.542C278.233 212.492 278.112 212.416 278.009 212.318C277.907 212.22 277.825 212.103 277.77 211.973C277.714 211.842 277.685 211.702 277.685 211.56C277.685 211.419 277.714 211.278 277.77 211.148C277.825 211.018 277.907 210.9 278.009 210.802C278.112 210.704 278.233 210.628 278.365 210.578C278.498 210.529 278.639 210.506 278.781 210.512H285.029C285.171 210.506 285.312 210.529 285.445 210.578C285.578 210.628 285.699 210.704 285.801 210.802C285.903 210.9 285.985 211.018 286.041 211.148C286.096 211.278 286.125 211.419 286.125 211.56C286.125 211.702 286.096 211.842 286.041 211.973C285.985 212.103 285.903 212.22 285.801 212.318C285.699 212.416 285.578 212.492 285.445 212.542C285.312 212.592 285.171 212.615 285.029 212.608H285.013ZM272.534 212.608H266.302C266.032 212.596 265.777 212.481 265.591 212.285C265.404 212.09 265.3 211.83 265.3 211.56C265.3 211.29 265.404 211.03 265.591 210.835C265.777 210.64 266.032 210.524 266.302 210.512H272.54C272.816 210.521 273.078 210.634 273.273 210.829C273.468 211.024 273.581 211.286 273.589 211.561C273.589 211.839 273.478 212.105 273.282 212.301C273.086 212.497 272.82 212.608 272.542 212.608H272.534ZM260.002 212.608H253.772C253.502 212.596 253.247 212.481 253.06 212.285C252.874 212.09 252.769 211.83 252.769 211.56C252.769 211.29 252.874 211.03 253.06 210.835C253.247 210.64 253.502 210.524 253.772 210.512H260.01C260.152 210.506 260.293 210.529 260.426 210.578C260.558 210.628 260.679 210.704 260.782 210.802C260.884 210.9 260.966 211.018 261.021 211.148C261.077 211.278 261.106 211.419 261.106 211.56C261.106 211.702 261.077 211.842 261.021 211.973C260.966 212.103 260.884 212.22 260.782 212.318C260.679 212.416 260.558 212.492 260.426 212.542C260.293 212.592 260.152 212.615 260.01 212.608H260.002ZM247.472 212.608H241.242C241.1 212.615 240.959 212.592 240.826 212.542C240.693 212.492 240.572 212.416 240.47 212.318C240.368 212.22 240.286 212.103 240.23 211.973C240.175 211.842 240.146 211.702 240.146 211.56C240.146 211.419 240.175 211.278 240.23 211.148C240.286 211.018 240.368 210.9 240.47 210.802C240.572 210.704 240.693 210.628 240.826 210.578C240.959 210.529 241.1 210.506 241.242 210.512H247.48C247.75 210.524 248.005 210.64 248.191 210.835C248.378 211.03 248.482 211.29 248.482 211.56C248.482 211.83 248.378 212.09 248.191 212.285C248.005 212.481 247.75 212.596 247.48 212.608H247.472ZM234.669 212.608H230.388C230.126 212.581 229.847 212.569 229.576 212.557C229.306 212.544 229.023 212.53 228.763 212.505H228.709C228.431 212.476 228.176 212.339 227.999 212.123C227.822 211.906 227.738 211.629 227.766 211.351C227.794 211.113 227.901 210.892 228.069 210.723C228.238 210.553 228.458 210.444 228.695 210.413H228.678H228.606H228.746H228.695C229.265 210.461 229.934 210.512 230.553 210.512H234.696C234.965 210.524 235.22 210.64 235.407 210.835C235.594 211.03 235.698 211.29 235.698 211.56C235.698 211.83 235.594 212.09 235.407 212.285C235.22 212.481 234.965 212.596 234.696 212.608H234.669ZM441.09 211.718C440.866 211.724 440.647 211.655 440.467 211.522C440.287 211.389 440.156 211.2 440.095 210.985C440.044 210.855 440.022 210.715 440.029 210.576C440.037 210.436 440.074 210.299 440.139 210.175C440.203 210.051 440.293 209.942 440.403 209.856C440.513 209.769 440.64 209.707 440.776 209.674C442.597 209.149 444.329 208.354 445.914 207.316C446.09 207.215 446.289 207.16 446.492 207.157C446.578 207.147 446.666 207.157 446.747 207.188C446.828 207.218 446.901 207.268 446.959 207.332C447.008 207.428 447.034 207.534 447.034 207.642C447.034 207.75 447.008 207.856 446.959 207.952C447.103 208.182 447.151 208.46 447.092 208.725C447.033 208.99 446.871 209.221 446.643 209.368C446.484 209.476 446.306 209.575 446.137 209.688C445.968 209.802 445.8 209.895 445.648 209.998H445.441C444.156 210.695 442.803 211.257 441.402 211.675C441.308 211.708 441.208 211.72 441.109 211.708L441.09 211.718ZM220.897 209.662C220.773 209.67 220.649 209.652 220.532 209.61C219.665 209.289 218.823 208.903 218.015 208.456H217.808L217.757 208.404L217.703 208.352C217.567 208.22 217.417 208.103 217.257 208.001L217.232 207.985C217.117 207.899 217.021 207.791 216.948 207.667C216.875 207.543 216.828 207.406 216.809 207.264C216.792 207.132 216.802 206.998 216.837 206.87C216.872 206.741 216.933 206.621 217.015 206.517C217.116 206.39 217.243 206.287 217.388 206.216C217.533 206.144 217.692 206.106 217.854 206.104H217.899C217.938 206.104 217.978 206.104 217.986 206.081C217.994 206.058 217.951 205.974 217.503 205.639C218.696 206.44 219.974 207.105 221.315 207.623C221.57 207.731 221.773 207.934 221.88 208.189C221.988 208.444 221.992 208.731 221.891 208.988C221.805 209.183 221.666 209.349 221.491 209.468C221.315 209.587 221.109 209.654 220.897 209.662ZM217.434 205.587C217.083 205.352 216.732 205.1 216.387 204.84C216.902 205.197 217.213 205.42 217.436 205.585L217.434 205.587ZM451.016 205.311C450.766 205.304 450.526 205.211 450.335 205.048C450.232 204.968 450.146 204.867 450.084 204.752C450.021 204.637 449.983 204.51 449.972 204.379C449.958 204.235 449.975 204.09 450.019 203.953C450.064 203.816 450.136 203.689 450.232 203.58C451.492 202.159 452.551 200.571 453.379 198.862C453.466 198.687 453.601 198.54 453.767 198.438C453.934 198.336 454.125 198.283 454.32 198.284C454.4 198.286 454.48 198.295 454.558 198.31C454.635 198.326 454.714 198.335 454.793 198.337C454.918 198.399 455.029 198.484 455.12 198.588C455.211 198.693 455.281 198.814 455.325 198.946C455.369 199.077 455.386 199.216 455.376 199.355C455.366 199.493 455.329 199.628 455.266 199.752C454.334 201.62 453.172 203.364 451.805 204.943C451.713 205.063 451.593 205.159 451.456 205.223C451.318 205.287 451.168 205.317 451.016 205.311ZM211.25 199.752C211.088 199.749 210.929 199.711 210.784 199.639C210.639 199.568 210.512 199.465 210.411 199.339C210.404 199.339 210.398 199.337 210.391 199.335C210.385 199.332 210.379 199.328 210.374 199.323C210.369 199.318 210.366 199.312 210.363 199.305C210.361 199.299 210.36 199.292 210.36 199.285L210.308 199.233L210.252 199.186V199.029C210.093 198.707 209.955 198.374 209.839 198.034C209.755 197.77 209.771 197.485 209.886 197.233C210 196.981 210.205 196.78 210.459 196.671C210.577 196.628 210.702 196.611 210.826 196.619H210.973C211.007 196.621 211.042 196.616 211.074 196.605C210.394 195.491 209.82 194.315 209.358 193.094C210.928 195.723 211.196 196.349 211.132 196.539C211.128 196.552 211.12 196.565 211.11 196.575C211.1 196.586 211.088 196.594 211.074 196.599C211.384 197.102 211.725 197.6 212.084 198.075C212.17 198.183 212.232 198.308 212.267 198.441C212.303 198.574 212.311 198.713 212.291 198.849C212.247 199.125 212.099 199.374 211.878 199.543C211.698 199.682 211.477 199.756 211.25 199.752ZM456.105 194.719H455.948C455.68 194.664 455.444 194.508 455.288 194.284C455.132 194.059 455.068 193.784 455.109 193.513C455.274 192.402 455.362 191.281 455.372 190.158V187.589C455.372 187.311 455.482 187.044 455.679 186.847C455.876 186.651 456.142 186.54 456.421 186.54C456.538 186.538 456.655 186.56 456.764 186.605C456.873 186.65 456.971 186.717 457.052 186.802C457.355 187.208 457.486 187.717 457.416 188.219V190.998C457.407 191.948 457.319 192.895 457.154 193.829C457.113 194.078 456.984 194.304 456.792 194.467C456.6 194.63 456.357 194.719 456.105 194.719ZM209.625 191.731H209.519C209.26 191.727 209.011 191.629 208.818 191.456C208.625 191.283 208.502 191.045 208.47 190.788C208.426 190.631 208.409 190.469 208.419 190.307V185.702C208.419 185.423 208.529 185.157 208.726 184.96C208.923 184.763 209.19 184.653 209.468 184.653C209.654 184.66 209.837 184.695 210.013 184.756C210.11 184.791 210.211 184.813 210.314 184.822C210.457 184.822 210.521 184.725 210.521 184.496V189.006C210.511 189.548 210.529 190.09 210.575 190.631C210.586 190.766 210.571 190.902 210.529 191.031C210.487 191.159 210.42 191.279 210.331 191.381C210.243 191.484 210.135 191.568 210.013 191.628C209.892 191.688 209.76 191.723 209.625 191.731ZM456.423 182.398C456.144 182.398 455.878 182.287 455.681 182.09C455.484 181.894 455.374 181.627 455.374 181.349V175.11C455.367 174.969 455.39 174.827 455.44 174.695C455.489 174.562 455.566 174.441 455.664 174.339C455.761 174.236 455.879 174.155 456.009 174.099C456.14 174.044 456.28 174.015 456.422 174.015C456.563 174.015 456.703 174.044 456.834 174.099C456.964 174.155 457.082 174.236 457.18 174.339C457.278 174.441 457.354 174.562 457.404 174.695C457.453 174.827 457.476 174.969 457.47 175.11V181.349C457.47 181.627 457.359 181.893 457.163 182.09C456.967 182.286 456.7 182.397 456.423 182.398ZM209.468 180.459C209.19 180.459 208.923 180.348 208.726 180.151C208.529 179.955 208.419 179.688 208.419 179.41V173.167C208.431 172.897 208.546 172.642 208.742 172.456C208.937 172.269 209.197 172.165 209.467 172.165C209.737 172.165 209.997 172.269 210.192 172.456C210.387 172.642 210.503 172.897 210.515 173.167V179.406C210.515 179.543 210.489 179.68 210.436 179.808C210.384 179.935 210.307 180.051 210.21 180.149C210.112 180.247 209.997 180.325 209.869 180.378C209.742 180.431 209.606 180.458 209.468 180.459ZM456.423 169.863C456.144 169.863 455.877 169.752 455.681 169.555C455.484 169.358 455.374 169.091 455.374 168.812V162.58C455.367 162.439 455.39 162.297 455.44 162.165C455.489 162.032 455.566 161.911 455.664 161.808C455.761 161.706 455.879 161.625 456.009 161.569C456.14 161.513 456.28 161.485 456.422 161.485C456.563 161.485 456.703 161.513 456.834 161.569C456.964 161.625 457.082 161.706 457.18 161.808C457.278 161.911 457.354 162.032 457.404 162.165C457.453 162.297 457.476 162.439 457.47 162.58V168.818C457.468 169.095 457.357 169.36 457.161 169.556C456.965 169.752 456.7 169.862 456.423 169.863ZM209.468 167.928C209.189 167.928 208.923 167.817 208.726 167.62C208.529 167.423 208.419 167.156 208.419 166.877V160.639C208.412 160.497 208.435 160.356 208.485 160.224C208.535 160.091 208.611 159.97 208.709 159.867C208.807 159.765 208.924 159.683 209.055 159.628C209.185 159.572 209.325 159.543 209.467 159.543C209.608 159.543 209.749 159.572 209.879 159.628C210.009 159.683 210.127 159.765 210.225 159.867C210.323 159.97 210.399 160.091 210.449 160.224C210.499 160.356 210.521 160.497 210.515 160.639V166.877C210.515 167.155 210.405 167.422 210.208 167.619C210.012 167.816 209.746 167.927 209.468 167.928ZM456.423 157.337C456.144 157.337 455.878 157.227 455.681 157.03C455.484 156.833 455.374 156.566 455.374 156.288V150.039C455.367 149.898 455.39 149.757 455.44 149.624C455.489 149.491 455.566 149.37 455.664 149.268C455.761 149.165 455.879 149.084 456.009 149.028C456.14 148.973 456.28 148.944 456.422 148.944C456.563 148.944 456.703 148.973 456.834 149.028C456.964 149.084 457.082 149.165 457.18 149.268C457.278 149.37 457.354 149.491 457.404 149.624C457.453 149.757 457.476 149.898 457.47 150.039V156.28C457.471 156.418 457.444 156.555 457.392 156.683C457.34 156.811 457.263 156.928 457.166 157.026C457.069 157.124 456.953 157.203 456.825 157.256C456.698 157.309 456.561 157.337 456.423 157.337ZM209.468 155.448C209.19 155.448 208.923 155.337 208.727 155.141C208.53 154.945 208.419 154.679 208.419 154.401V148.16C208.419 148.023 208.446 147.886 208.499 147.759C208.551 147.632 208.629 147.516 208.726 147.419C208.823 147.321 208.939 147.244 209.066 147.191C209.194 147.138 209.33 147.111 209.468 147.111C209.738 147.107 209.999 147.209 210.196 147.395C210.392 147.581 210.507 147.836 210.517 148.107V154.397C210.517 154.535 210.49 154.671 210.437 154.799C210.385 154.926 210.308 155.042 210.21 155.14C210.113 155.237 209.997 155.315 209.87 155.368C209.742 155.42 209.606 155.448 209.468 155.448ZM456.423 144.805C456.285 144.805 456.148 144.778 456.021 144.725C455.894 144.672 455.778 144.595 455.681 144.498C455.583 144.4 455.506 144.284 455.453 144.157C455.401 144.03 455.374 143.894 455.374 143.756V137.517C455.367 137.376 455.39 137.235 455.44 137.102C455.489 136.969 455.566 136.848 455.664 136.746C455.761 136.643 455.879 136.562 456.009 136.506C456.14 136.451 456.28 136.422 456.422 136.422C456.563 136.422 456.703 136.451 456.834 136.506C456.964 136.562 457.082 136.643 457.18 136.746C457.278 136.848 457.354 136.969 457.404 137.102C457.453 137.235 457.476 137.376 457.47 137.517V143.756C457.47 144.034 457.359 144.3 457.163 144.497C456.967 144.693 456.7 144.804 456.423 144.805ZM209.468 142.917C209.19 142.917 208.923 142.806 208.727 142.61C208.53 142.413 208.419 142.146 208.419 141.868V135.63C208.431 135.36 208.546 135.105 208.742 134.919C208.937 134.732 209.197 134.628 209.467 134.628C209.737 134.628 209.997 134.732 210.192 134.919C210.387 135.105 210.503 135.36 210.515 135.63V141.868C210.514 142.146 210.404 142.412 210.208 142.609C210.011 142.805 209.745 142.916 209.468 142.917ZM456.423 132.326C456.144 132.326 455.878 132.216 455.681 132.019C455.484 131.822 455.374 131.555 455.374 131.277V125.039C455.367 124.897 455.39 124.756 455.44 124.623C455.489 124.491 455.566 124.37 455.664 124.267C455.761 124.165 455.879 124.083 456.009 124.028C456.14 123.972 456.28 123.943 456.422 123.943C456.563 123.943 456.703 123.972 456.834 124.028C456.964 124.083 457.082 124.165 457.18 124.267C457.278 124.37 457.354 124.491 457.404 124.623C457.453 124.756 457.476 124.897 457.47 125.039V131.279C457.469 131.557 457.359 131.823 457.162 132.019C456.966 132.215 456.7 132.326 456.423 132.326ZM209.468 130.387C209.33 130.387 209.194 130.36 209.066 130.307C208.939 130.255 208.823 130.177 208.726 130.08C208.629 129.982 208.551 129.867 208.499 129.74C208.446 129.612 208.419 129.476 208.419 129.338V123.1C208.412 122.958 208.435 122.817 208.485 122.684C208.535 122.552 208.611 122.43 208.709 122.328C208.807 122.226 208.924 122.144 209.055 122.089C209.185 122.033 209.325 122.004 209.467 122.004C209.608 122.004 209.749 122.033 209.879 122.089C210.009 122.144 210.127 122.226 210.225 122.328C210.323 122.43 210.399 122.552 210.449 122.684C210.499 122.817 210.521 122.958 210.515 123.1V129.338C210.515 129.616 210.404 129.882 210.208 130.079C210.012 130.276 209.746 130.387 209.468 130.387ZM456.423 119.796C456.144 119.796 455.878 119.685 455.681 119.489C455.484 119.292 455.374 119.025 455.374 118.747V112.508C455.367 112.367 455.39 112.226 455.44 112.093C455.489 111.96 455.566 111.839 455.664 111.737C455.761 111.634 455.879 111.553 456.009 111.497C456.14 111.442 456.28 111.413 456.422 111.413C456.563 111.413 456.703 111.442 456.834 111.497C456.964 111.553 457.082 111.634 457.18 111.737C457.278 111.839 457.354 111.96 457.404 112.093C457.453 112.226 457.476 112.367 457.47 112.508V118.747C457.47 119.025 457.359 119.291 457.163 119.488C456.967 119.684 456.7 119.795 456.423 119.796ZM209.468 117.855C209.19 117.855 208.923 117.744 208.726 117.547C208.529 117.351 208.419 117.084 208.419 116.806V110.567C208.412 110.426 208.435 110.285 208.485 110.152C208.535 110.019 208.611 109.898 208.709 109.796C208.807 109.693 208.924 109.612 209.055 109.556C209.185 109.501 209.325 109.472 209.467 109.472C209.608 109.472 209.749 109.501 209.879 109.556C210.009 109.612 210.127 109.693 210.225 109.796C210.323 109.898 210.399 110.019 210.449 110.152C210.499 110.285 210.521 110.426 210.515 110.567V116.806C210.515 117.084 210.404 117.35 210.208 117.547C210.012 117.743 209.746 117.854 209.468 117.855ZM456.423 107.266C456.145 107.265 455.878 107.154 455.681 106.958C455.485 106.761 455.374 106.495 455.374 106.217V99.9761C455.367 99.8346 455.39 99.6933 455.44 99.5606C455.489 99.428 455.566 99.3069 455.664 99.2045C455.761 99.1021 455.879 99.0206 456.009 98.965C456.14 98.9093 456.28 98.8806 456.422 98.8806C456.563 98.8806 456.703 98.9093 456.834 98.965C456.964 99.0206 457.082 99.1021 457.18 99.2045C457.278 99.3069 457.354 99.428 457.404 99.5606C457.453 99.6933 457.476 99.8346 457.47 99.9761V106.214C457.47 106.492 457.359 106.759 457.163 106.956C456.967 107.153 456.701 107.264 456.423 107.266ZM209.468 105.376C209.19 105.376 208.923 105.266 208.727 105.07C208.53 104.873 208.419 104.607 208.419 104.329V98.0908C208.419 97.8124 208.529 97.5454 208.726 97.3483C208.923 97.1513 209.189 97.0403 209.468 97.0397C209.607 97.0348 209.746 97.0587 209.875 97.1098C210.005 97.1609 210.123 97.2382 210.221 97.3368C210.32 97.4354 210.397 97.5533 210.448 97.683C210.498 97.8127 210.522 97.9516 210.517 98.0908V104.329C210.516 104.607 210.405 104.873 210.209 105.07C210.012 105.266 209.746 105.376 209.468 105.376ZM456.423 94.7332C456.144 94.7332 455.878 94.6226 455.681 94.4259C455.484 94.2292 455.374 93.9624 455.374 93.6842V87.4459C455.367 87.3043 455.39 87.163 455.44 87.0304C455.489 86.8977 455.566 86.7766 455.664 86.6742C455.761 86.5718 455.879 86.4903 456.009 86.4347C456.14 86.379 456.28 86.3503 456.422 86.3503C456.563 86.3503 456.703 86.379 456.834 86.4347C456.964 86.4903 457.082 86.5718 457.18 86.6742C457.278 86.7766 457.354 86.8977 457.404 87.0304C457.453 87.163 457.476 87.3043 457.47 87.4459V93.6862C457.469 93.9637 457.359 94.2297 457.162 94.4259C456.966 94.6221 456.7 94.7326 456.423 94.7332ZM209.468 92.8396C209.192 92.8396 208.928 92.7314 208.732 92.5382C208.535 92.345 208.423 92.0824 208.419 91.8071V85.5585C208.431 85.2886 208.546 85.0337 208.742 84.847C208.937 84.6602 209.197 84.556 209.467 84.556C209.737 84.556 209.997 84.6602 210.192 84.847C210.387 85.0337 210.503 85.2886 210.515 85.5585V91.8071C210.51 92.0821 210.398 92.3444 210.202 92.5375C210.007 92.7306 209.743 92.8391 209.468 92.8396ZM456.423 82.2566C456.144 82.256 455.877 82.145 455.681 81.948C455.484 81.7509 455.374 81.4839 455.374 81.2055V74.9672C455.367 74.8257 455.39 74.6843 455.44 74.5517C455.489 74.4191 455.566 74.2979 455.664 74.1955C455.761 74.0932 455.879 74.0117 456.009 73.956C456.14 73.9004 456.28 73.8717 456.422 73.8717C456.563 73.8717 456.703 73.9004 456.834 73.956C456.964 74.0117 457.082 74.0932 457.18 74.1955C457.278 74.2979 457.354 74.4191 457.404 74.5517C457.453 74.6843 457.476 74.8257 457.47 74.9672V81.2055C457.47 81.4835 457.359 81.7503 457.163 81.9473C456.967 82.1443 456.701 82.2555 456.423 82.2566ZM209.519 79.8426C209.242 79.8426 208.976 79.7327 208.779 79.5368C208.582 79.341 208.471 79.0752 208.47 78.7977V72.9745C208.502 72.717 208.625 72.4796 208.818 72.3062C209.011 72.1327 209.26 72.0349 209.519 72.0308C209.519 72.0308 209.575 72.0308 209.676 71.5579C209.945 71.5851 210.193 71.7149 210.369 71.9202C210.545 72.1256 210.635 72.3907 210.62 72.6606C210.577 73.1315 210.56 73.6044 210.568 74.0772V78.7977C210.567 79.0751 210.456 79.3405 210.259 79.5362C210.063 79.7319 209.797 79.8421 209.519 79.8426ZM455.683 70.0897C455.452 70.0925 455.228 70.0159 455.046 69.8726C454.865 69.7294 454.739 69.5283 454.688 69.303C454.178 67.4772 453.419 65.7304 452.433 64.1116C452.307 63.8727 452.274 63.5952 452.342 63.3335C452.409 63.0719 452.572 62.8449 452.799 62.6971C452.952 62.5902 453.136 62.5352 453.323 62.5402C453.656 62.5402 454.031 62.6537 454.529 63.4839V63.5871C455.211 64.7578 455.79 65.9856 456.259 67.2566C456.311 67.3082 456.311 67.3082 456.311 67.3598V67.6262C456.432 67.929 456.534 68.2394 456.615 68.5554L456.679 68.7785C456.716 68.9036 456.728 69.0351 456.713 69.165C456.699 69.2949 456.658 69.4204 456.594 69.5342C456.525 69.6572 456.432 69.765 456.321 69.8512C456.21 69.9375 456.082 70.0003 455.946 70.036C455.865 70.0785 455.774 70.0971 455.683 70.0897ZM211.566 67.207C211.441 67.2153 211.316 67.1978 211.198 67.1554C210.939 67.0473 210.729 66.8462 210.61 66.5916C210.547 66.468 210.511 66.3327 210.504 66.1944C210.497 66.056 210.519 65.9177 210.568 65.7884L210.657 65.5468C210.785 65.1833 210.934 64.8276 211.103 64.4812V63.903C211.602 63.037 212.144 62.1968 212.728 61.3858C212.829 61.2591 212.957 61.1563 213.102 61.0849C213.247 61.0135 213.407 60.9752 213.569 60.9728H213.682C213.889 60.9728 214.209 60.8634 215.037 60.0766C215.255 60.247 215.398 60.4952 215.437 60.769C215.475 61.0429 215.406 61.321 215.243 61.5448C214.114 63.0674 213.21 64.7449 212.559 66.5256C212.48 66.725 212.343 66.8963 212.166 67.0176C211.989 67.139 211.78 67.2049 211.566 67.207ZM449.608 59.9734C449.474 59.9827 449.339 59.964 449.213 59.9185C449.086 59.873 448.971 59.8017 448.873 59.7091C447.508 58.3994 445.953 57.3036 444.26 56.4588C444.135 56.3975 444.024 56.3122 443.933 56.2078C443.842 56.1033 443.772 55.9818 443.728 55.8502C443.684 55.7187 443.667 55.5797 443.677 55.4414C443.687 55.303 443.724 55.1681 443.787 55.0443C443.88 54.8736 444.016 54.7303 444.181 54.6288C444.347 54.5273 444.536 54.4712 444.731 54.4661C444.89 54.4661 445.059 54.5301 447.403 56.0396L447.562 56.1181L447.719 56.1945H447.981L448.033 56.2482L448.084 56.2998L448.136 56.3514L448.19 56.403L448.241 56.4547C448.976 56.9864 449.676 57.5643 450.337 58.1851C450.432 58.2702 450.509 58.3734 450.564 58.4886C450.619 58.6038 450.651 58.7288 450.657 58.8562C450.676 59.1469 450.58 59.4334 450.389 59.6533C450.178 59.8545 449.899 59.9688 449.608 59.9734ZM217.752 58.8191C217.591 58.8167 217.431 58.7784 217.286 58.707C217.14 58.6356 217.013 58.5328 216.912 58.4061C216.823 58.2997 216.757 58.1765 216.717 58.0439C216.676 57.9112 216.663 57.7719 216.678 57.6341C216.693 57.4963 216.736 57.363 216.803 57.2419C216.87 57.1209 216.962 57.0147 217.071 56.9296C218.704 55.6234 220.52 54.5638 222.461 53.7846C222.58 53.7391 222.709 53.7208 222.836 53.731C223.052 53.7277 223.264 53.7915 223.442 53.9136C223.621 54.0356 223.757 54.2099 223.832 54.4124C223.932 54.6702 223.927 54.957 223.819 55.2115C223.767 55.3382 223.691 55.4532 223.594 55.55C223.497 55.6468 223.382 55.7234 223.256 55.7753C221.507 56.4901 219.867 57.4435 218.38 58.6084C218.204 58.7535 217.98 58.8285 217.752 58.8191ZM439.064 54.623H438.858C437.598 54.3686 436.315 54.2454 435.029 54.2555H428.791C428.521 54.2435 428.266 54.1278 428.08 53.9326C427.893 53.7374 427.789 53.4776 427.789 53.2075C427.789 52.9373 427.893 52.6776 428.08 52.4824C428.266 52.2871 428.521 52.1715 428.791 52.1595H435.029C435.083 52.1595 435.083 52.1595 435.659 52.2111H436.025C437.118 52.2498 438.208 52.3706 439.283 52.5725C439.418 52.5959 439.546 52.6457 439.662 52.7192C439.777 52.7926 439.876 52.8882 439.954 53.0004C440.032 53.1126 440.087 53.2391 440.116 53.3727C440.145 53.5062 440.147 53.6441 440.122 53.7785C440.061 54.0152 439.926 54.2258 439.735 54.3782C439.544 54.5307 439.309 54.6166 439.064 54.623ZM229.967 54.3092H229.864C229.604 54.3042 229.356 54.2061 229.163 54.0328C228.971 53.8595 228.847 53.6226 228.815 53.3655C228.787 53.0873 228.871 52.8095 229.048 52.5931C229.225 52.3767 229.48 52.2393 229.758 52.2111C229.837 52.2086 229.916 52.1996 229.994 52.1843C230.071 52.1697 230.15 52.1614 230.229 52.1595H234.737C235.121 52.2008 235.49 52.3348 235.811 52.5498C236.228 52.7758 236.657 52.9785 237.097 53.1569C237.097 53.2947 237.07 53.4311 237.017 53.5583C236.965 53.6856 236.887 53.8012 236.79 53.8987C236.593 54.0954 236.326 54.2059 236.048 54.2059H232.125C231.371 54.2038 230.617 54.2575 229.967 54.3092ZM422.547 54.2555H416.308C416.167 54.2617 416.025 54.2393 415.893 54.1895C415.76 54.1396 415.639 54.0635 415.537 53.9655C415.434 53.8676 415.353 53.7499 415.297 53.6197C415.241 53.4894 415.213 53.3492 415.213 53.2075C415.213 53.0658 415.241 52.9256 415.297 52.7953C415.353 52.665 415.434 52.5474 415.537 52.4495C415.639 52.3515 415.76 52.2753 415.893 52.2255C416.025 52.1757 416.167 52.1532 416.308 52.1595H422.557C422.827 52.1715 423.082 52.2871 423.268 52.4824C423.455 52.6776 423.559 52.9373 423.559 53.2075C423.559 53.4776 423.455 53.7374 423.268 53.9326C423.082 54.1278 422.827 54.2435 422.557 54.2555H422.547ZM410.014 54.2555H403.776C403.506 54.2435 403.251 54.1278 403.064 53.9326C402.878 53.7374 402.773 53.4776 402.773 53.2075C402.773 52.9373 402.878 52.6776 403.064 52.4824C403.251 52.2871 403.506 52.1715 403.776 52.1595H410.014C410.156 52.1532 410.297 52.1757 410.43 52.2255C410.562 52.2753 410.684 52.3515 410.786 52.4495C410.888 52.5474 410.97 52.665 411.025 52.7953C411.081 52.9256 411.11 53.0658 411.11 53.2075C411.11 53.3492 411.081 53.4894 411.025 53.6197C410.97 53.7499 410.888 53.8676 410.786 53.9655C410.684 54.0635 410.562 54.1396 410.43 54.1895C410.297 54.2393 410.156 54.2617 410.014 54.2555ZM397.484 54.2555H391.246C391.104 54.2617 390.963 54.2393 390.83 54.1895C390.698 54.1396 390.576 54.0635 390.474 53.9655C390.372 53.8676 390.29 53.7499 390.235 53.6197C390.179 53.4894 390.15 53.3492 390.15 53.2075C390.15 53.0658 390.179 52.9256 390.235 52.7953C390.29 52.665 390.372 52.5474 390.474 52.4495C390.576 52.3515 390.698 52.2753 390.83 52.2255C390.963 52.1757 391.104 52.1532 391.246 52.1595H397.484C397.754 52.1715 398.009 52.2871 398.195 52.4824C398.382 52.6776 398.486 52.9373 398.486 53.2075C398.486 53.4776 398.382 53.7374 398.195 53.9326C398.009 54.1278 397.754 54.2435 397.484 54.2555ZM384.952 54.2555H378.715C378.574 54.2617 378.433 54.2393 378.3 54.1895C378.167 54.1396 378.046 54.0635 377.944 53.9655C377.841 53.8676 377.76 53.7499 377.704 53.6197C377.649 53.4894 377.62 53.3492 377.62 53.2075C377.62 53.0658 377.649 52.9256 377.704 52.7953C377.76 52.665 377.841 52.5474 377.944 52.4495C378.046 52.3515 378.167 52.2753 378.3 52.2255C378.433 52.1757 378.574 52.1532 378.715 52.1595H384.954C385.095 52.1532 385.237 52.1757 385.369 52.2255C385.502 52.2753 385.623 52.3515 385.725 52.4495C385.828 52.5474 385.909 52.665 385.965 52.7953C386.021 52.9256 386.049 53.0658 386.049 53.2075C386.049 53.3492 386.021 53.4894 385.965 53.6197C385.909 53.7499 385.828 53.8676 385.725 53.9655C385.623 54.0635 385.502 54.1396 385.369 54.1895C385.237 54.2393 385.095 54.2617 384.954 54.2555H384.952ZM372.473 54.2555H366.237C366.095 54.2617 365.954 54.2393 365.821 54.1895C365.689 54.1396 365.567 54.0635 365.465 53.9655C365.363 53.8676 365.281 53.7499 365.226 53.6197C365.17 53.4894 365.141 53.3492 365.141 53.2075C365.141 53.0658 365.17 52.9256 365.226 52.7953C365.281 52.665 365.363 52.5474 365.465 52.4495C365.567 52.3515 365.689 52.2753 365.821 52.2255C365.954 52.1757 366.095 52.1532 366.237 52.1595H372.475C372.751 52.1678 373.013 52.281 373.208 52.4759C373.403 52.6709 373.516 52.9329 373.524 53.2085C373.524 53.486 373.413 53.752 373.217 53.9482C373.021 54.1444 372.755 54.2549 372.477 54.2555H372.473ZM359.941 54.2555H353.653C353.511 54.2617 353.37 54.2393 353.237 54.1895C353.105 54.1396 352.983 54.0635 352.881 53.9655C352.779 53.8676 352.697 53.7499 352.642 53.6197C352.586 53.4894 352.557 53.3492 352.557 53.2075C352.557 53.0658 352.586 52.9256 352.642 52.7953C352.697 52.665 352.779 52.5474 352.881 52.4495C352.983 52.3515 353.105 52.2753 353.237 52.2255C353.37 52.1757 353.511 52.1532 353.653 52.1595H359.945C360.215 52.1715 360.47 52.2871 360.656 52.4824C360.843 52.6776 360.947 52.9373 360.947 53.2075C360.947 53.4776 360.843 53.7374 360.656 53.9326C360.47 54.1278 360.215 54.2435 359.945 54.2555H359.941ZM347.408 54.2555H341.174C341.033 54.2617 340.891 54.2393 340.759 54.1895C340.626 54.1396 340.505 54.0635 340.402 53.9655C340.3 53.8676 340.219 53.7499 340.163 53.6197C340.107 53.4894 340.079 53.3492 340.079 53.2075C340.079 53.0658 340.107 52.9256 340.163 52.7953C340.219 52.665 340.3 52.5474 340.402 52.4495C340.505 52.3515 340.626 52.2753 340.759 52.2255C340.891 52.1757 341.033 52.1532 341.174 52.1595H347.412C347.554 52.1532 347.695 52.1757 347.828 52.2255C347.961 52.2753 348.082 52.3515 348.184 52.4495C348.286 52.5474 348.368 52.665 348.424 52.7953C348.479 52.9256 348.508 53.0658 348.508 53.2075C348.508 53.3492 348.479 53.4894 348.424 53.6197C348.368 53.7499 348.286 53.8676 348.184 53.9655C348.082 54.0635 347.961 54.1396 347.828 54.1895C347.695 54.2393 347.554 54.2617 347.412 54.2555H347.408ZM334.878 54.2555H328.644C328.502 54.2617 328.361 54.2393 328.228 54.1895C328.096 54.1396 327.975 54.0635 327.872 53.9655C327.77 53.8676 327.688 53.7499 327.633 53.6197C327.577 53.4894 327.548 53.3492 327.548 53.2075C327.548 53.0658 327.577 52.9256 327.633 52.7953C327.688 52.665 327.77 52.5474 327.872 52.4495C327.975 52.3515 328.096 52.2753 328.228 52.2255C328.361 52.1757 328.502 52.1532 328.644 52.1595H334.882C335.152 52.1715 335.407 52.2871 335.594 52.4824C335.78 52.6776 335.885 52.9373 335.885 53.2075C335.885 53.4776 335.78 53.7374 335.594 53.9326C335.407 54.1278 335.152 54.2435 334.882 54.2555H334.878ZM322.397 54.2555H316.165C316.024 54.2617 315.882 54.2393 315.75 54.1895C315.617 54.1396 315.496 54.0635 315.394 53.9655C315.291 53.8676 315.21 53.7499 315.154 53.6197C315.098 53.4894 315.07 53.3492 315.07 53.2075C315.07 53.0658 315.098 52.9256 315.154 52.7953C315.21 52.665 315.291 52.5474 315.394 52.4495C315.496 52.3515 315.617 52.2753 315.75 52.2255C315.882 52.1757 316.024 52.1532 316.165 52.1595H322.406C322.681 52.1688 322.942 52.2823 323.137 52.477C323.332 52.6718 323.445 52.9333 323.455 53.2085C323.453 53.4862 323.343 53.7522 323.146 53.9483C322.949 54.1445 322.683 54.2549 322.406 54.2555H322.397ZM309.867 54.2555H303.635C303.493 54.2617 303.352 54.2393 303.219 54.1895C303.087 54.1396 302.966 54.0635 302.863 53.9655C302.761 53.8676 302.679 53.7499 302.624 53.6197C302.568 53.4894 302.539 53.3492 302.539 53.2075C302.539 53.0658 302.568 52.9256 302.624 52.7953C302.679 52.665 302.761 52.5474 302.863 52.4495C302.966 52.3515 303.087 52.2753 303.219 52.2255C303.352 52.1757 303.493 52.1532 303.635 52.1595H309.873C310.143 52.1715 310.398 52.2871 310.585 52.4824C310.771 52.6776 310.876 52.9373 310.876 53.2075C310.876 53.4776 310.771 53.7374 310.585 53.9326C310.398 54.1278 310.143 54.2435 309.873 54.2555H309.867ZM297.335 54.2555H291.103C290.833 54.2435 290.578 54.1278 290.391 53.9326C290.204 53.7374 290.1 53.4776 290.1 53.2075C290.1 52.9373 290.204 52.6776 290.391 52.4824C290.578 52.2871 290.833 52.1715 291.103 52.1595H297.341C297.611 52.1715 297.866 52.2871 298.052 52.4824C298.239 52.6776 298.343 52.9373 298.343 53.2075C298.343 53.4776 298.239 53.7374 298.052 53.9326C297.866 54.1278 297.611 54.2435 297.341 54.2555H297.335ZM284.804 54.2555H278.57C278.429 54.2617 278.287 54.2393 278.155 54.1895C278.022 54.1396 277.901 54.0635 277.799 53.9655C277.696 53.8676 277.615 53.7499 277.559 53.6197C277.503 53.4894 277.475 53.3492 277.475 53.2075C277.475 53.0658 277.503 52.9256 277.559 52.7953C277.615 52.665 277.696 52.5474 277.799 52.4495C277.901 52.3515 278.022 52.2753 278.155 52.2255C278.287 52.1757 278.429 52.1532 278.57 52.1595H284.811C285.08 52.1715 285.335 52.2871 285.522 52.4824C285.709 52.6776 285.813 52.9373 285.813 53.2075C285.813 53.4776 285.709 53.7374 285.522 53.9326C285.335 54.1278 285.08 54.2435 284.811 54.2555H284.804ZM272.326 54.2555H266.094C265.952 54.2617 265.811 54.2393 265.678 54.1895C265.545 54.1396 265.424 54.0635 265.322 53.9655C265.22 53.8676 265.138 53.7499 265.082 53.6197C265.027 53.4894 264.998 53.3492 264.998 53.2075C264.998 53.0658 265.027 52.9256 265.082 52.7953C265.138 52.665 265.22 52.5474 265.322 52.4495C265.424 52.3515 265.545 52.2753 265.678 52.2255C265.811 52.1757 265.952 52.1532 266.094 52.1595H272.332C272.604 52.177 272.861 52.2932 273.054 52.4862C273.247 52.6793 273.363 52.936 273.381 53.2085C273.38 53.4864 273.27 53.7527 273.073 53.9489C272.876 54.1452 272.61 54.2555 272.332 54.2555H272.326ZM259.795 54.2555H253.51C253.368 54.2617 253.227 54.2393 253.094 54.1895C252.961 54.1396 252.84 54.0635 252.738 53.9655C252.636 53.8676 252.554 53.7499 252.498 53.6197C252.443 53.4894 252.414 53.3492 252.414 53.2075C252.414 53.0658 252.443 52.9256 252.498 52.7953C252.554 52.665 252.636 52.5474 252.738 52.4495C252.84 52.3515 252.961 52.2753 253.094 52.2255C253.227 52.1757 253.368 52.1532 253.51 52.1595H259.802C259.943 52.1532 260.084 52.1757 260.217 52.2255C260.35 52.2753 260.471 52.3515 260.573 52.4495C260.676 52.5474 260.757 52.665 260.813 52.7953C260.868 52.9256 260.897 53.0658 260.897 53.2075C260.897 53.3492 260.868 53.4894 260.813 53.6197C260.757 53.7499 260.676 53.8676 260.573 53.9655C260.471 54.0635 260.35 54.1396 260.217 54.1895C260.084 54.2393 259.943 54.2617 259.802 54.2555H259.795ZM247.263 54.2555H241.031C240.889 54.2617 240.748 54.2393 240.615 54.1895C240.483 54.1396 240.362 54.0635 240.259 53.9655C240.157 53.8676 240.075 53.7499 240.02 53.6197C239.964 53.4894 239.935 53.3492 239.935 53.2075C239.935 53.0658 239.964 52.9256 240.02 52.7953C240.075 52.665 240.157 52.5474 240.259 52.4495C240.362 52.3515 240.483 52.2753 240.615 52.2255C240.748 52.1757 240.889 52.1532 241.031 52.1595H247.269C247.539 52.1715 247.794 52.2871 247.981 52.4824C248.167 52.6776 248.272 52.9373 248.272 53.2075C248.272 53.4776 248.167 53.7374 247.981 53.9326C247.794 54.1278 247.539 54.2435 247.269 54.2555H247.263Z" fill="#EAEAFF"/>
<path d="M457.466 76.9062V77.7983H208.419V76.9062H457.466Z" fill="white"/>
<path d="M232.276 190.053C230.859 190.047 229.502 189.482 228.5 188.48C227.498 187.478 226.933 186.121 226.927 184.704V106.111C226.933 104.694 227.498 103.337 228.5 102.335C229.502 101.334 230.859 100.768 232.276 100.763H235.107C236.523 100.768 237.881 101.334 238.882 102.335C239.884 103.337 240.449 104.694 240.455 106.111V184.653C240.46 186.077 239.9 187.446 238.897 188.458C237.894 189.47 236.531 190.044 235.107 190.053H232.276Z" fill="#EAEAFF"/>
<path d="M257.076 190.053C255.91 190.046 254.794 189.579 253.969 188.755C253.145 187.93 252.678 186.814 252.671 185.648V134.319C252.678 133.153 253.145 132.037 253.969 131.212C254.794 130.388 255.91 129.921 257.076 129.914H261.794C262.96 129.921 264.077 130.388 264.901 131.212C265.726 132.037 266.192 133.153 266.199 134.319V185.648C266.184 186.811 265.715 187.923 264.892 188.745C264.069 189.568 262.958 190.037 261.794 190.053H257.076Z" fill="#EAEAFF"/>
<path d="M283.71 190.053C282.293 190.047 280.936 189.482 279.934 188.48C278.932 187.478 278.367 186.121 278.362 184.704V106.111C278.367 104.694 278.932 103.337 279.934 102.335C280.936 101.334 282.293 100.768 283.71 100.763H286.541C287.958 100.768 289.315 101.334 290.317 102.335C291.319 103.337 291.884 104.694 291.889 106.111V184.653C291.894 186.077 291.334 187.446 290.332 188.458C289.329 189.47 287.966 190.044 286.541 190.053H283.71Z" fill="#EAEAFF"/>
<path d="M310.501 190.059C309.277 190.057 308.103 189.569 307.238 188.702C306.373 187.836 305.888 186.662 305.888 185.437V127.973C305.89 126.75 306.377 125.578 307.241 124.714C308.106 123.849 309.278 123.362 310.501 123.36H314.749C315.971 123.362 317.143 123.849 318.008 124.714C318.873 125.578 319.359 126.75 319.362 127.973V185.437C319.366 186.045 319.25 186.647 319.02 187.209C318.79 187.772 318.451 188.283 318.021 188.713C317.592 189.143 317.082 189.483 316.52 189.714C315.958 189.945 315.356 190.062 314.749 190.059H310.501Z" fill="#EAEAFF"/>
<path d="M335.409 190.053C334.395 190.047 333.425 189.642 332.708 188.926C331.991 188.21 331.586 187.24 331.58 186.226V148.896C331.586 147.882 331.991 146.911 332.707 146.194C333.424 145.478 334.395 145.072 335.409 145.067H341.333C342.346 145.073 343.316 145.478 344.033 146.195C344.749 146.912 345.154 147.882 345.159 148.896V186.226C345.145 187.237 344.737 188.202 344.022 188.917C343.307 189.632 342.342 190.04 341.331 190.055L335.409 190.053Z" fill="#EAEAFF"/>
<path d="M361.935 190.059C360.711 190.057 359.538 189.569 358.673 188.702C357.808 187.836 357.322 186.662 357.322 185.437V127.973C357.324 126.75 357.811 125.578 358.676 124.714C359.541 123.849 360.713 123.362 361.935 123.36H366.183C367.406 123.362 368.578 123.849 369.443 124.714C370.307 125.578 370.794 126.75 370.796 127.973V185.437C370.801 186.045 370.685 186.647 370.455 187.209C370.225 187.772 369.885 188.283 369.456 188.713C369.027 189.143 368.516 189.483 367.955 189.714C367.393 189.945 366.791 190.062 366.183 190.059H361.935Z" fill="#EAEAFF"/>
<path d="M231.069 52.1595C225.128 52.1082 219.408 54.4133 215.163 58.57C210.918 62.7267 208.493 68.3963 208.418 74.3374V77.3254H457.465V74.3374C457.391 68.3967 454.966 62.7274 450.721 58.5708C446.476 54.4141 440.757 52.1088 434.816 52.1595H231.069Z" fill="#EAEAFF"/>
<path d="M402.622 68.0475C401.732 68.0607 400.873 67.7202 400.234 67.1007C399.595 66.4811 399.228 65.6333 399.214 64.7435C399.228 63.8537 399.595 63.0059 400.234 62.3864C400.873 61.7669 401.732 61.4263 402.622 61.4396C403.511 61.4263 404.37 61.7669 405.009 62.3864C405.648 63.0059 406.015 63.8537 406.029 64.7435C406.015 65.6333 405.648 66.4811 405.009 67.1007C404.37 67.7202 403.511 68.0607 402.622 68.0475Z" fill="#FF8870"/>
<path d="M417.985 68.0475C417.096 68.0607 416.237 67.7202 415.598 67.1007C414.959 66.4811 414.592 65.6333 414.578 64.7435C414.592 63.8537 414.959 63.0059 415.598 62.3864C416.237 61.7669 417.096 61.4263 417.985 61.4396C418.875 61.4263 419.734 61.7669 420.373 62.3864C421.012 63.0059 421.378 63.8537 421.393 64.7435C421.378 65.6333 421.012 66.4811 420.373 67.1007C419.734 67.7202 418.875 68.0607 417.985 68.0475Z" fill="#FFD301"/>
<path d="M433.347 68.0475C432.457 68.0607 431.598 67.7202 430.959 67.1007C430.32 66.4811 429.954 65.6333 429.939 64.7435C429.954 63.8537 430.32 63.0059 430.959 62.3864C431.598 61.7669 432.457 61.4263 433.347 61.4396C434.236 61.4263 435.095 61.7669 435.734 62.3864C436.373 63.0059 436.74 63.8537 436.754 64.7435C436.74 65.6333 436.373 66.4811 435.734 67.1007C435.095 67.7202 434.236 68.0607 433.347 68.0475Z" fill="#54CDA2"/>
<path d="M448.763 245.629C445.233 245.625 441.849 244.22 439.352 241.724C436.856 239.227 435.451 235.843 435.446 232.312V152.511C435.451 148.981 436.856 145.597 439.352 143.1C441.849 140.604 445.233 139.199 448.763 139.194H554.779C558.31 139.199 561.694 140.604 564.19 143.1C566.687 145.597 568.091 148.981 568.096 152.511V232.312C568.091 235.843 566.687 239.227 564.19 241.724C561.694 244.22 558.31 245.625 554.779 245.629H448.763Z" fill="#EAEAFF"/>
<path d="M568.096 165.987V166.931H435.446V165.987H568.096Z" fill="white"/>
<path d="M516.443 157.021C515.667 157.021 514.908 156.791 514.263 156.36C513.618 155.929 513.115 155.316 512.818 154.599C512.521 153.882 512.444 153.093 512.595 152.332C512.746 151.571 513.12 150.872 513.669 150.323C514.217 149.775 514.916 149.401 515.678 149.25C516.439 149.098 517.228 149.176 517.944 149.473C518.661 149.77 519.274 150.273 519.705 150.918C520.136 151.563 520.366 152.322 520.366 153.098C520.366 154.138 519.953 155.136 519.217 155.872C518.482 156.608 517.484 157.021 516.443 157.021Z" fill="#FF8870"/>
<path d="M534.27 157.021C533.494 157.021 532.736 156.791 532.09 156.36C531.445 155.929 530.942 155.316 530.645 154.599C530.348 153.882 530.271 153.093 530.422 152.332C530.573 151.571 530.947 150.872 531.496 150.323C532.045 149.775 532.744 149.401 533.505 149.25C534.266 149.098 535.055 149.176 535.772 149.473C536.489 149.77 537.101 150.273 537.532 150.918C537.963 151.563 538.194 152.322 538.194 153.098C538.194 154.138 537.78 155.136 537.044 155.872C536.309 156.608 535.311 157.021 534.27 157.021Z" fill="#FFD301"/>
<path d="M552.097 157.021C551.321 157.021 550.562 156.791 549.917 156.36C549.272 155.929 548.769 155.316 548.472 154.599C548.175 153.882 548.097 153.093 548.249 152.332C548.4 151.571 548.774 150.872 549.322 150.323C549.871 149.775 550.57 149.401 551.331 149.25C552.092 149.098 552.881 149.176 553.598 149.473C554.315 149.77 554.928 150.273 555.359 150.918C555.79 151.563 556.02 152.322 556.02 153.098C556.02 154.138 555.607 155.136 554.871 155.872C554.135 156.608 553.137 157.021 552.097 157.021Z" fill="#54CDA2"/>
<path d="M509.428 203.686C509.117 203.684 508.812 203.599 508.545 203.44C508.277 203.281 508.057 203.053 507.908 202.78C507.758 202.508 507.684 202.2 507.693 201.889C507.702 201.578 507.794 201.275 507.96 201.011L518.706 184.182C518.772 184.087 518.817 183.979 518.839 183.865C518.862 183.752 518.861 183.635 518.836 183.522C518.811 183.409 518.764 183.302 518.697 183.208C518.629 183.115 518.543 183.035 518.444 182.976C514.995 180.954 511.098 179.822 507.103 179.681C503.108 179.54 499.141 180.395 495.558 182.168C491.976 183.941 488.89 186.577 486.58 189.839C484.269 193.101 482.806 196.886 482.321 200.855C481.943 204.08 482.219 207.348 483.133 210.464C484.048 213.58 485.581 216.479 487.643 218.988C489.704 221.497 492.251 223.564 495.13 225.065C498.009 226.567 501.162 227.472 504.399 227.726C507.637 227.98 510.892 227.578 513.97 226.545C517.048 225.511 519.886 223.866 522.314 221.71C524.742 219.553 526.709 216.929 528.099 213.994C529.488 211.059 530.271 207.874 530.4 204.629C530.393 204.381 530.291 204.146 530.115 203.971C529.94 203.795 529.704 203.693 529.457 203.686H509.428Z" fill="white"/>
<path d="M206.794 363.234C226.822 328.105 248.583 305.297 261.951 295.23C270.546 288.886 279.648 283.257 289.164 278.401L277.577 381.061L245.279 483.197L180.054 483.616C180.054 483.616 186.765 398.363 206.794 363.234Z" fill="#F9D2DD"/>
<path d="M269.763 405.702L277.571 381.061L285.019 315.364L276.055 285.793C275.856 285.904 275.663 286.027 275.479 286.161C275.584 294.865 274.587 323.964 258.701 348.763C244.752 370.521 215.655 374.455 201.34 374.978C200.927 375.921 200.502 376.917 200.134 377.869L269.763 405.702Z" fill="#F9ACC0"/>
<path d="M250.313 390.55C250.313 390.55 266.461 381.051 275.376 339.272C280.513 315.153 275.376 285.215 275.376 285.215C275.376 285.215 309.349 265.135 344.478 266.812C365.231 267.735 385.804 271.098 405.771 276.831C405.771 276.831 403.516 294.082 403.516 329.788C403.516 365.493 419.139 403.92 419.139 403.92L416.622 483.616H239.092L250.313 390.55Z" fill="#3D5CFF"/>
<path d="M329.115 368.843L321.617 444.082L417.252 418.757L363.976 410.629L329.115 368.843Z" fill="#224BF4"/>
<path d="M289.845 278.506V479.16H288.744V278.506H289.845Z" fill="white"/>
<path d="M314.067 270.116V479.158H312.966V270.116H314.067Z" fill="white"/>
<path d="M338.343 278.506V479.16H337.242V278.506H338.343Z" fill="white"/>
<path d="M362.567 278.506V479.16H361.466V278.506H362.567Z" fill="white"/>
<path d="M386.789 272.371V479.16H385.688V272.371H386.789Z" fill="white"/>
<path d="M403.673 64.7951C402.183 66.1146 401.027 67.7674 400.298 69.6188C399.569 71.4702 399.289 73.4677 399.479 75.4483C395.881 74.1982 392.03 73.859 388.269 74.4611C384.509 75.0633 380.956 76.588 377.929 78.8989C369.96 84.9287 370.908 94.2603 371.899 98.6649C361.308 97.8265 350.14 101.762 345.893 110.2C343.371 115.736 342.203 121.793 342.485 127.87C315.327 125.877 292.513 143.023 289.11 167.724C285.707 192.425 298.338 206.574 298.338 206.574L349.773 221.727C349.773 221.727 372.108 223.247 383.748 212.656C395.388 202.065 402.675 177.318 393.92 157.131C391.186 151.37 387.169 146.312 382.176 142.345C385.408 139.113 388.371 135.624 391.037 131.911C392.891 129.155 394.079 126.006 394.507 122.712C394.934 119.418 394.59 116.07 393.501 112.932C397.247 112.36 400.856 111.1 404.144 109.215C411.693 105.126 413.642 96.5793 411.798 89.1846C414.278 89.2559 416.758 89.0481 419.191 88.5651C426.478 86.9916 429.415 77.9222 424.539 68.8507C419.664 59.7793 409.492 60.2336 403.673 64.7951Z" fill="#1F1F39"/>
<path d="M293.2 193.305C284.288 197.185 284.864 214.487 297.657 220.044C310.449 225.601 317.739 221.145 317.739 221.145L307.672 193.305C307.672 193.305 302.113 189.425 293.2 193.305Z" fill="#F9ACC0"/>
<path d="M308.351 219.152L304.052 210.24C299.912 201.641 294.301 198.808 294.247 198.808C294.123 198.752 294.026 198.649 293.977 198.521C293.928 198.394 293.931 198.252 293.985 198.127C294.041 198.002 294.145 197.904 294.273 197.855C294.401 197.806 294.543 197.809 294.669 197.864C294.931 197.97 300.698 200.801 304.993 209.819L309.293 218.731C309.347 218.856 309.35 218.998 309.301 219.125C309.252 219.253 309.155 219.356 309.031 219.412C308.979 219.412 308.874 219.464 308.824 219.464C308.723 219.465 308.624 219.436 308.54 219.381C308.455 219.325 308.39 219.246 308.351 219.152Z" fill="#1F1F39"/>
<path d="M299.383 188.584C299.645 194.09 300.957 213.961 307.143 224.447C311.011 231.194 316.923 236.538 324.027 239.705C324.306 239.816 324.543 240.013 324.704 240.268C324.864 240.522 324.939 240.821 324.919 241.122C324.762 245.045 324.132 258.895 322.717 264.559C321.46 269.645 320.2 273.734 319.62 275.413C319.536 275.675 319.526 275.956 319.591 276.224C319.655 276.492 319.793 276.737 319.987 276.932C322.242 279.187 330.893 283.487 344.996 283.487C358.943 283.487 366.493 280.026 369.167 278.452C369.431 278.292 369.642 278.057 369.773 277.777C369.903 277.497 369.948 277.184 369.9 276.879C369.113 272.79 366.183 257.164 366.183 249.458C366.183 242.117 366.916 231.788 367.178 228.329C367.202 228.001 367.333 227.69 367.551 227.444C367.769 227.198 368.062 227.03 368.384 226.966C372.946 226.128 389.986 221.985 388.991 206.523C388.047 191.002 373.995 192.367 370.377 192.995C370.113 193.042 369.866 193.159 369.663 193.334C369.46 193.51 369.308 193.736 369.223 193.99C368.603 195.773 367.021 200.282 366.181 203.795C366.105 204.133 365.911 204.434 365.634 204.643C365.357 204.852 365.016 204.957 364.669 204.938C364.323 204.919 363.994 204.778 363.742 204.54C363.489 204.302 363.329 203.983 363.29 203.638C363.028 201.85 362.89 200.045 362.877 198.238C362.823 196.472 363.017 194.707 363.453 192.995C363.501 192.806 363.51 192.609 363.48 192.416C363.45 192.223 363.381 192.038 363.279 191.872C363.176 191.706 363.041 191.562 362.882 191.449C362.723 191.336 362.543 191.255 362.353 191.213C358.367 190.269 348.143 187.019 342.849 178.158C340.557 174.486 338.66 170.582 337.189 166.512C337.095 166.233 336.921 165.989 336.687 165.81C336.454 165.632 336.172 165.527 335.879 165.511C335.586 165.494 335.294 165.565 335.041 165.716C334.789 165.866 334.588 166.089 334.463 166.355C331.441 172.393 326.574 177.312 320.568 180.397C314.424 183.854 307.682 186.116 300.696 187.065C300.323 187.098 299.978 187.276 299.733 187.559C299.488 187.843 299.362 188.21 299.383 188.584Z" fill="#F9D2DD"/>
<path d="M453.22 324.225C466.023 352.643 471.675 412.519 470.471 434.015C469.317 454.097 462.083 476.905 438.121 481.937C414.213 486.97 327.806 481.931 327.806 481.931V424.576L411.958 419.019L405.298 380.588C405.298 380.588 396.962 342.679 399.741 313.739C402.467 284.691 404.722 276.879 404.722 276.879C404.722 276.879 435.498 284.901 453.22 324.225Z" fill="#F9D2DD"/>
<path d="M340.441 187.694C341.417 187.218 342.505 187.019 343.586 187.118C344.125 187.166 344.654 187.289 345.158 187.486C345.681 187.642 346.165 187.911 346.574 188.273C347.001 188.592 347.342 189.014 347.563 189.499C347.785 189.985 347.881 190.518 347.842 191.05C347.717 190.598 347.504 190.175 347.214 189.806C346.925 189.437 346.565 189.129 346.155 188.9C345.336 188.492 344.447 188.243 343.535 188.167C342.614 188.087 341.687 188.194 340.809 188.481C339.894 188.795 339.055 189.295 338.343 189.949C338.762 188.979 339.503 188.182 340.441 187.694Z" fill="#1F1F39"/>
<path d="M310.503 187.957C311.316 187.226 312.348 186.784 313.437 186.699C313.984 186.647 314.536 186.7 315.063 186.856C315.595 187.052 316.091 187.335 316.531 187.694C316.915 188.058 317.221 188.497 317.429 188.984C317.636 189.471 317.741 189.996 317.737 190.525C317.369 189.651 316.772 188.893 316.008 188.33C315.643 188.079 315.234 187.899 314.802 187.8C314.596 187.8 314.389 187.694 314.183 187.694H313.563C312.652 187.756 311.775 188.065 311.025 188.586C310.186 189.102 309.442 189.758 308.824 190.525C309.136 189.531 309.717 188.641 310.503 187.957Z" fill="#1F1F39"/>
<path d="M326.756 197.026C326.494 197.759 326.232 198.443 326.023 199.176C325.815 199.909 325.61 200.592 325.447 201.325C325.269 201.991 325.216 202.684 325.29 203.37C325.335 203.677 325.462 203.967 325.658 204.208C325.733 204.353 325.84 204.479 325.972 204.576L326.129 204.732L326.335 204.889C326.909 205.314 327.572 205.601 328.274 205.728C329.017 205.887 329.771 205.992 330.529 206.042C329.778 206.242 328.997 206.312 328.222 206.248C327.412 206.2 326.623 205.967 325.916 205.567C325.537 205.348 325.206 205.053 324.945 204.702C324.683 204.35 324.497 203.949 324.396 203.522C324.272 202.703 324.308 201.868 324.501 201.063C324.835 199.531 325.364 198.048 326.075 196.65C326.695 195.271 327.451 193.957 328.33 192.727L326.756 197.026Z" fill="#1F1F39"/>
<path d="M314.383 203.999C313.274 203.91 312.244 203.386 311.518 202.542C310.791 201.698 310.427 200.602 310.503 199.492C310.426 198.38 310.79 197.284 311.517 196.44C312.243 195.595 313.273 195.071 314.383 194.982C315.494 195.071 316.524 195.595 317.25 196.44C317.976 197.284 318.34 198.38 318.263 199.492C318.34 200.602 317.975 201.698 317.249 202.542C316.523 203.386 315.493 203.91 314.383 203.999Z" fill="#1F1F39"/>
<path d="M342.223 203.999C341.113 203.91 340.084 203.386 339.357 202.542C338.631 201.698 338.267 200.602 338.343 199.492C338.266 198.38 338.63 197.284 339.357 196.44C340.083 195.595 341.113 195.071 342.223 194.982C343.333 195.071 344.363 195.595 345.09 196.44C345.816 197.284 346.18 198.38 346.103 199.492C346.18 200.602 345.815 201.698 345.089 202.542C344.363 203.386 343.333 203.91 342.223 203.999Z" fill="#1F1F39"/>
<path d="M348.199 422.951V481.937C348.199 481.937 366.865 483.038 389.253 483.668L369.12 421.588L348.199 422.951Z" fill="#F9ACC0"/>
<path d="M335.564 220.672C334.454 220.582 333.424 220.059 332.698 219.215C331.971 218.371 331.607 217.275 331.683 216.164C331.606 215.053 331.971 213.957 332.697 213.112C333.423 212.268 334.453 211.744 335.564 211.654C336.674 211.744 337.704 212.268 338.43 213.112C339.156 213.957 339.521 215.053 339.444 216.164C339.52 217.275 339.156 218.371 338.429 219.215C337.703 220.059 336.673 220.582 335.564 220.672Z" fill="#F95368"/>
<path d="M178.954 483.09C176.722 482.933 174.58 482.145 172.779 480.817C170.978 479.49 169.592 477.677 168.782 475.592L147.547 359.143C146.025 355.053 148.175 351.645 152.317 351.645H339.706C341.938 351.802 344.079 352.59 345.88 353.918C347.681 355.245 349.068 357.058 349.878 359.143L371.108 475.592C372.628 479.734 370.489 483.09 366.336 483.09H178.954Z" fill="#EAEAFF"/>
<path d="M256.962 425.921C254.512 425.921 252.116 425.194 250.079 423.833C248.041 422.471 246.453 420.536 245.515 418.272C244.578 416.008 244.332 413.517 244.81 411.114C245.288 408.71 246.468 406.503 248.201 404.77C249.934 403.037 252.142 401.857 254.545 401.379C256.948 400.901 259.44 401.146 261.704 402.084C263.967 403.022 265.903 404.61 267.264 406.647C268.625 408.685 269.352 411.08 269.352 413.531C269.352 416.817 268.047 419.968 265.723 422.292C263.4 424.615 260.248 425.921 256.962 425.921Z" fill="white"/>
<g opacity="0.635">
<path opacity="0.635" d="M351.922 220.201C345.494 220.201 340.282 217.009 340.282 213.071C340.282 209.133 345.494 205.941 351.922 205.941C358.35 205.941 363.562 209.133 363.562 213.071C363.562 217.009 358.35 220.201 351.922 220.201Z" fill="#F9ACC0"/>
<path opacity="0.635" d="M310.66 220.203C304.232 220.203 299.02 217.011 299.02 213.073C299.02 209.135 304.232 205.942 310.66 205.942C317.088 205.942 322.3 209.135 322.3 213.073C322.3 217.011 317.088 220.203 310.66 220.203Z" fill="#F9ACC0"/>
</g>
<path d="M338.238 242.433C333.671 242.027 329.135 241.326 324.658 240.335C324.824 240.603 324.914 240.911 324.921 241.227C324.815 244.529 324.342 254.701 323.347 261.255C328.382 260.206 337.819 257.681 343.324 252.97C347.516 249.531 351.267 245.587 354.491 241.227C349.145 242.308 343.685 242.713 338.238 242.433Z" fill="#F9ACC0"/>
<path d="M324.764 240.597C324.698 240.574 324.639 240.537 324.589 240.488C324.539 240.44 324.501 240.381 324.476 240.317C324.451 240.252 324.44 240.183 324.445 240.113C324.449 240.044 324.469 239.977 324.501 239.916C324.525 239.85 324.562 239.791 324.61 239.741C324.659 239.691 324.717 239.653 324.782 239.628C324.847 239.603 324.916 239.592 324.985 239.597C325.054 239.601 325.122 239.62 325.183 239.653C330.287 241.479 335.714 242.231 341.122 241.863C346.167 241.645 351.175 240.905 356.067 239.653C356.131 239.63 356.201 239.621 356.269 239.627C356.338 239.633 356.404 239.655 356.464 239.69C356.523 239.725 356.574 239.773 356.612 239.83C356.651 239.888 356.676 239.953 356.686 240.021C356.71 240.086 356.719 240.155 356.713 240.224C356.706 240.292 356.685 240.359 356.65 240.418C356.614 240.477 356.566 240.528 356.509 240.566C356.452 240.605 356.387 240.63 356.319 240.64C351.356 241.898 346.279 242.653 341.166 242.895C340.274 242.895 339.435 242.947 338.597 242.947C333.882 243.007 329.195 242.211 324.764 240.597Z" fill="#1F1F39"/>
<path d="M367.495 217.162C366.057 220.896 365.964 225.015 367.232 228.81V228.496C367.256 228.168 367.387 227.857 367.605 227.611C367.823 227.365 368.116 227.197 368.438 227.133C370.088 226.818 371.717 226.398 373.314 225.876C372.214 221.795 371.894 217.544 372.37 213.346C372.927 209.6 374.078 205.968 375.779 202.585C375.779 202.585 370.956 206.413 367.495 217.162Z" fill="#F9ACC0"/>
<path d="M366.237 221.721C366.507 217.539 367.668 213.463 369.644 209.767C371.528 205.781 374.511 202.416 378.243 200.068C378.304 200.032 378.372 200.009 378.442 200C378.513 199.991 378.584 199.997 378.653 200.016C378.721 200.035 378.785 200.068 378.84 200.112C378.896 200.157 378.942 200.212 378.976 200.274C379.011 200.336 379.034 200.404 379.043 200.474C379.052 200.544 379.047 200.616 379.027 200.684C379.008 200.753 378.975 200.817 378.931 200.872C378.887 200.927 378.832 200.973 378.769 201.007C375.263 203.28 372.451 206.474 370.641 210.24C368.75 213.795 367.624 217.707 367.337 221.723C367.309 221.86 367.237 221.984 367.134 222.078C367.031 222.172 366.9 222.232 366.761 222.248C366.692 222.248 366.624 222.234 366.56 222.207C366.496 222.181 366.438 222.142 366.39 222.093C366.341 222.044 366.302 221.986 366.276 221.922C366.25 221.859 366.237 221.79 366.237 221.721Z" fill="#1F1F39"/>
<path d="M420.294 284.482C415.481 281.205 410.219 278.644 404.67 276.879C404.67 276.879 402.415 284.691 399.636 313.635C397.8 332.561 400.737 355.315 402.983 368.791C403.049 353.844 404.544 338.938 407.448 324.276C411.747 302.99 416.887 290.826 420.294 284.482Z" fill="#F9ACC0"/>
<path d="M436.442 416.767L409.125 402.295L411.85 418.549L436.442 416.767Z" fill="#F9ACC0"/>
<path d="M411.425 418.811C411.373 418.549 411.631 418.286 411.897 418.235L436.756 415.868C436.895 415.855 437.033 415.897 437.141 415.986C437.249 416.074 437.318 416.202 437.332 416.341C437.383 416.603 437.125 416.866 436.859 416.917L411.955 419.284C411.826 419.279 411.702 419.229 411.605 419.143C411.508 419.057 411.444 418.939 411.425 418.811Z" fill="#1F1F39"/>
<path d="M125.293 485.167C125.021 485.167 124.804 484.708 124.804 484.134C124.804 483.56 125.021 483.102 125.293 483.102H516.66C516.931 483.102 517.15 483.56 517.15 484.134C517.15 484.708 516.933 485.167 516.66 485.167H125.293Z" fill="#1F1F39"/>
</svg>
