<svg width="188" height="25" viewBox="0 0 188 25" fill="none" xmlns="http://www.w3.org/2000/svg">
<path d="M0.918723 24.0213V0.748573H5.83918V19.9645H15.8165V24.0213H0.918723ZM19.075 24.0213V0.748573H34.7568V4.80539H23.9954V10.3508H33.95V14.4077H23.9954V19.9645H34.8022V24.0213H19.075ZM42.6801 24.0213H37.4074L45.4415 0.748573H51.7824L59.8051 24.0213H54.5324L48.7028 6.06676H48.521L42.6801 24.0213ZM42.3505 14.8736H54.8051V18.7145H42.3505V14.8736ZM62.6062 24.0213V0.748573H71.788C73.5456 0.748573 75.0456 1.06297 76.288 1.69176C77.538 2.31297 78.4888 3.19554 79.1403 4.33948C79.7994 5.47585 80.129 6.81297 80.129 8.35085C80.129 9.8963 79.7956 11.2258 79.129 12.3395C78.4623 13.4455 77.4964 14.294 76.2312 14.8849C74.9736 15.4758 73.4509 15.7713 71.663 15.7713H65.5153V11.8168H70.8676C71.807 11.8168 72.5873 11.688 73.2085 11.4304C73.8297 11.1728 74.2918 10.7865 74.5949 10.2713C74.9055 9.75615 75.0608 9.116 75.0608 8.35085C75.0608 7.57812 74.9055 6.9266 74.5949 6.3963C74.2918 5.866 73.8259 5.46448 73.1971 5.19176C72.5759 4.91145 71.7918 4.7713 70.8449 4.7713H67.5267V24.0213H62.6062ZM75.1744 13.4304L80.9585 24.0213H75.5267L69.8676 13.4304H75.1744ZM103.072 0.748573V24.0213H98.8221L88.6971 9.37357H88.5267V24.0213H83.6062V0.748573H87.9244L97.9699 15.3849H98.1744V0.748573H103.072ZM117.922 10.4645V14.3054H107.308V10.4645H117.922Z" fill="#794FF2"/>
<path d="M122.137 24.0213V0.748573H127.058V10.3508H137.047V0.748573H141.956V24.0213H137.047V14.4077H127.058V24.0213H122.137ZM160.387 0.748573H165.308V15.8622C165.308 17.5592 164.903 19.044 164.092 20.3168C163.289 21.5895 162.164 22.5819 160.717 23.294C159.27 23.9986 157.584 24.3508 155.66 24.3508C153.728 24.3508 152.039 23.9986 150.592 23.294C149.145 22.5819 148.02 21.5895 147.217 20.3168C146.414 19.044 146.012 17.5592 146.012 15.8622V0.748573H150.933V15.4418C150.933 16.3281 151.126 17.116 151.512 17.8054C151.906 18.4948 152.459 19.0365 153.172 19.4304C153.884 19.8243 154.713 20.0213 155.66 20.0213C156.615 20.0213 157.444 19.8243 158.149 19.4304C158.861 19.0365 159.41 18.4948 159.797 17.8054C160.191 17.116 160.387 16.3281 160.387 15.4418V0.748573ZM169.356 24.0213V0.748573H178.674C180.387 0.748573 181.815 1.00236 182.958 1.50994C184.102 2.01751 184.962 2.72206 185.538 3.62357C186.114 4.51751 186.402 5.54782 186.402 6.71448C186.402 7.62357 186.22 8.42282 185.856 9.11221C185.493 9.79403 184.993 10.3546 184.356 10.794C183.727 11.2258 183.008 11.5327 182.197 11.7145V11.9418C183.083 11.9796 183.913 12.2296 184.686 12.6918C185.466 13.1539 186.099 13.8016 186.583 14.6349C187.068 15.4607 187.311 16.4455 187.311 17.5895C187.311 18.8243 187.004 19.9266 186.39 20.8963C185.784 21.8584 184.887 22.6198 183.697 23.1804C182.508 23.741 181.042 24.0213 179.299 24.0213H169.356ZM174.277 19.9986H178.288C179.659 19.9986 180.659 19.7372 181.288 19.2145C181.917 18.6842 182.231 17.9796 182.231 17.1008C182.231 16.4569 182.076 15.8887 181.765 15.3963C181.455 14.9039 181.012 14.5175 180.436 14.2372C179.868 13.9569 179.19 13.8168 178.402 13.8168H174.277V19.9986ZM174.277 10.4872H177.924C178.599 10.4872 179.197 10.3698 179.72 10.1349C180.25 9.89251 180.667 9.5516 180.97 9.11221C181.28 8.67282 181.436 8.1463 181.436 7.53267C181.436 6.69176 181.137 6.01373 180.538 5.49857C179.947 4.98342 179.106 4.72585 178.015 4.72585H174.277V10.4872Z" fill="#0F0F10"/>
</svg>
