<svg width="87" height="75" viewBox="0 0 87 75" fill="none" xmlns="http://www.w3.org/2000/svg">
<path d="M55.1977 46.9325C44.7865 46.9325 24.0032 53.0912 24.0032 65.455V74.7162H86.3921V65.455C86.3921 53.0912 65.6088 46.9325 55.1977 46.9325ZM55.1977 37.6712C59.3343 37.6712 63.3015 35.7197 66.2266 32.2461C69.1516 28.7725 70.7949 24.0612 70.7949 19.1487C70.7949 14.2362 69.1516 9.52498 66.2266 6.05133C63.3015 2.57769 59.3343 0.626221 55.1977 0.626221C51.061 0.626221 47.0938 2.57769 44.1688 6.05133C41.2437 9.52498 39.6005 14.2362 39.6005 19.1487C39.6005 24.0612 41.2437 28.7725 44.1688 32.2461C47.0938 35.7197 51.061 37.6712 55.1977 37.6712ZM16.2046 43.5984L25.7579 50.4981L23.2234 37.486L31.8019 28.7804L20.5329 27.6228L16.2046 15.3979L11.7984 27.6228L0.607422 28.7804L9.1079 37.486L6.45638 50.4981L16.2046 43.5984Z" fill="#911DED"/>
</svg>
